<svg xmlns="http://www.w3.org/2000/svg" xmlns:xlink="http://www.w3.org/1999/xlink" viewBox="0 0 480 480" width="480px" height="480px"><g id="surface22385697"><path style=" stroke:none;fill-rule:nonzero;fill:rgb(40.000001%,40.000001%,40.000001%);fill-opacity:1;" d="M 230.839844 112.769531 C 214.511719 88.28125 210.980469 55.550781 210.210938 42.101562 C 168.730469 51.070312 127.519531 67.160156 129.898438 79.011719 C 130.199219 80.5 132.078125 82.289062 135.199219 84.03125 L 130.320312 92.761719 C 124.359375 89.421875 121.011719 85.570312 120.101562 80.96875 C 117.410156 67.558594 132.601562 55.429688 166.519531 43.878906 C 189.679688 35.988281 213.039062 31.28125 214.03125 31.089844 L 220 29.890625 L 220 36 C 220 36.421875 220.261719 78.878906 239.160156 107.230469 Z M 230.839844 112.769531 "></path><path style=" stroke:none;fill-rule:nonzero;fill:rgb(40.000001%,40.000001%,40.000001%);fill-opacity:1;" d="M 247.511719 430 L 245 430 C 163.078125 430 71.910156 404.269531 61.140625 361.210938 C 54.570312 334.910156 76.058594 305.851562 123.28125 277.199219 L 128.480469 285.738281 C 85.988281 311.53125 65.519531 337.460938 70.851562 358.789062 C 80.199219 396.171875 166.601562 419.46875 242.378906 419.988281 C 251.390625 406.519531 299.800781 327.390625 272.171875 221.261719 L 281.839844 218.738281 C 313.328125 339.660156 249.660156 427.109375 249.019531 427.980469 Z M 247.511719 430 "></path><path style=" stroke:none;fill-rule:nonzero;fill:rgb(40.000001%,40.000001%,40.000001%);fill-opacity:1;" d="M 99.308594 393.058594 C 93.921875 393.058594 91.25 392.46875 90.808594 392.359375 C 89.050781 391.929688 87.671875 390.578125 87.191406 388.839844 C 86.699219 387.101562 87.199219 385.230469 88.480469 383.960938 C 89.199219 383.238281 160.449219 311.878906 170.070312 254.179688 L 179.929688 255.820312 C 171.660156 305.460938 122.78125 362.050781 103.371094 382.890625 C 122.761719 381.78125 171.71875 372.699219 265.710938 320.089844 C 192.359375 312.050781 180.761719 253.328125 180.640625 252.699219 L 190.46875 250.890625 C 190.941406 253.351562 202.730469 311 282.910156 311 C 282.941406 311 282.960938 311 282.988281 311 C 285.261719 311 287.230469 312.519531 287.808594 314.699219 C 288.410156 316.878906 287.449219 319.191406 285.5 320.328125 C 173.148438 385.421875 118.671875 393.050781 99.308594 393.058594 Z M 99.308594 393.058594 "></path><path style=" stroke:none;fill-rule:nonzero;fill:rgb(40.000001%,40.000001%,40.000001%);fill-opacity:1;" d="M 145.238281 417 C 143.171875 417 141.289062 415.71875 140.558594 413.75 C 139.769531 411.640625 140.488281 409.25 142.328125 407.929688 C 142.671875 407.679688 160.460938 394.550781 179.390625 365.648438 C 172.109375 362.429688 164.738281 358.671875 157.429688 354.28125 C 148.550781 348.949219 141.839844 343.230469 136.828125 337.371094 C 111.128906 344.148438 87.410156 346.828125 66.578125 345.058594 L 67.421875 335.101562 C 86.179688 336.691406 107.511719 334.46875 130.628906 328.699219 C 114.898438 301.820312 129.339844 275.140625 129.539062 274.78125 L 138.28125 279.648438 C 137.609375 280.871094 125.628906 303.351562 140.769531 325.980469 C 162.78125 319.660156 186.261719 310.308594 210.558594 298.160156 C 216.148438 279.808594 220.519531 258.941406 222.808594 235.398438 C 222.96875 233.789062 223.890625 232.359375 225.289062 231.550781 C 226.691406 230.738281 228.398438 230.671875 229.871094 231.339844 C 230.191406 231.488281 262.511719 246.25 285.910156 255.878906 C 287.609375 256.578125 288.789062 258.160156 288.980469 259.988281 C 289.179688 261.820312 288.351562 263.601562 286.820312 264.640625 C 263.929688 280.238281 241.191406 293.769531 219.039062 305.058594 C 212.019531 327.308594 203.328125 345.828125 194.449219 360.96875 C 231.46875 374.800781 263.601562 375.011719 264.011719 375.011719 C 266.289062 375.011719 268.28125 376.550781 268.851562 378.761719 C 269.421875 380.96875 268.429688 383.28125 266.441406 384.390625 C 221.039062 409.609375 148.769531 416.710938 145.71875 417 C 145.558594 416.988281 145.398438 417 145.238281 417 Z M 189.089844 369.671875 C 178.691406 385.808594 168.46875 397.398438 160.828125 404.96875 C 180.808594 402.03125 215.839844 395.589844 244.910156 383.578125 C 230.988281 381.871094 210.839844 378.070312 189.089844 369.671875 Z M 147.671875 334.308594 C 151.601562 338.230469 156.5 342.058594 162.570312 345.710938 C 169.929688 350.128906 177.398438 353.878906 184.769531 357.058594 C 192.308594 344.421875 199.78125 329.25 206.191406 311.378906 C 185.980469 321 166.359375 328.679688 147.671875 334.308594 Z M 232.019531 243.289062 C 229.96875 260.96875 226.808594 277.101562 222.890625 291.789062 C 239.488281 282.941406 256.429688 272.828125 273.511719 261.53125 C 258.019531 254.96875 240.988281 247.339844 232.019531 243.289062 Z M 232.019531 243.289062 "></path><path style=" stroke:none;fill-rule:nonzero;fill:rgb(40.000001%,40.000001%,40.000001%);fill-opacity:1;" d="M 179.238281 106 C 178.070312 106 176.910156 105.578125 175.988281 104.800781 C 159.890625 91.019531 140.941406 62.980469 140.140625 61.789062 C 138.851562 59.878906 139.050781 57.328125 140.601562 55.628906 C 142.140625 53.921875 144.679688 53.519531 146.679688 54.609375 C 146.789062 54.640625 156.058594 58.460938 218.851562 68.921875 C 220.660156 69.21875 222.148438 70.480469 222.75 72.199219 C 223.359375 73.921875 222.96875 75.839844 221.75 77.199219 C 204.171875 96.730469 181.960938 105.328125 181.019531 105.679688 C 180.441406 105.890625 179.828125 106 179.238281 106 Z M 156.46875 67.460938 C 162.78125 75.949219 171.871094 87.421875 180.191406 95.148438 C 185.300781 92.820312 196.761719 86.96875 207.628906 77.171875 C 181.800781 72.761719 166.039062 69.621094 156.46875 67.460938 Z M 156.46875 67.460938 "></path><path style=" stroke:none;fill-rule:nonzero;fill:rgb(71.764708%,10.980392%,10.980392%);fill-opacity:1;" d="M 218.429688 244 C 217.75 244 217.058594 243.859375 216.421875 243.578125 C 214.429688 242.699219 213.230469 240.640625 213.460938 238.480469 C 216.378906 210.988281 174.199219 199.960938 173.769531 199.859375 C 172.03125 199.421875 170.648438 198.070312 170.179688 196.339844 C 169.710938 194.609375 170.199219 192.75 171.46875 191.480469 C 173.539062 189.410156 222.859375 140.5 284.738281 113.640625 C 286.46875 112.890625 288.429688 113.171875 289.890625 114.339844 C 291.339844 115.519531 292.011719 117.410156 291.628906 119.230469 C 279.769531 176.671875 224.53125 239.671875 222.191406 242.320312 C 221.199219 243.410156 219.820312 244 218.429688 244 Z M 184.550781 192.851562 C 196.390625 197.300781 217.128906 207.601562 222.378906 226.410156 C 236.871094 208.328125 267.800781 166.679688 279.351562 127.070312 C 235.480469 148.171875 198.539062 179.988281 184.550781 192.851562 Z M 184.550781 192.851562 "></path><path style=" stroke:none;fill-rule:nonzero;fill:rgb(71.764708%,10.980392%,10.980392%);fill-opacity:1;" d="M 130.789062 283.601562 L 126.039062 274.800781 C 144.871094 264.648438 166.441406 245.96875 184.109375 224.261719 C 169.070312 234.558594 160.460938 241.609375 160.191406 241.839844 L 153.800781 234.140625 C 154.191406 233.820312 171.441406 219.671875 200.109375 201.941406 C 207.980469 189.28125 214.03125 176.261719 217.140625 163.78125 C 217.671875 161.660156 218.128906 159.609375 218.5 157.628906 C 199.25 150.761719 181.488281 146.691406 169.289062 144.941406 C 167.441406 144.679688 165.898438 143.410156 165.28125 141.660156 C 164.660156 139.910156 165.070312 137.949219 166.320312 136.589844 C 167.171875 135.671875 187.480469 113.910156 212.859375 101.960938 C 214.828125 101.03125 217.191406 101.488281 218.671875 103.101562 C 219.339844 103.828125 233.070312 119.25 229.578125 151.148438 C 241.128906 155.648438 253.03125 161.121094 264.488281 167.628906 C 292.082031 155.230469 323.410156 144.070312 356.78125 137.328125 C 358.5 136.988281 360.410156 137.609375 361.589844 139.011719 C 362.761719 140.410156 363.078125 142.339844 362.421875 144.039062 C 349.421875 177.359375 314.558594 212.949219 313.078125 214.449219 C 312.070312 215.46875 310.691406 215.980469 309.25 215.929688 C 307.820312 215.851562 306.5 215.171875 305.601562 214.050781 C 294.398438 199.96875 279.761719 188.308594 263.96875 178.820312 C 242.21875 188.859375 222.960938 199.601562 207.128906 209.308594 C 186.929688 240.839844 156.441406 269.789062 130.789062 283.601562 Z M 274.921875 173.960938 C 287.820312 182.28125 299.828125 192.058594 309.761719 203.441406 C 318.039062 194.460938 337.910156 171.761719 349.179688 149.21875 C 322.679688 155.320312 297.601562 164.148438 274.921875 173.960938 Z M 227.988281 161.21875 C 227.660156 162.851562 227.28125 164.519531 226.859375 166.21875 C 224.761719 174.609375 221.421875 183.230469 217.140625 191.828125 C 228.101562 185.570312 240.230469 179.109375 253.320312 172.851562 C 244.941406 168.410156 236.390625 164.550781 227.988281 161.21875 Z M 180.480469 136.71875 C 191.589844 138.898438 205.28125 142.460938 219.890625 147.578125 C 221.410156 129.148438 216.429688 117.859375 213.421875 112.859375 C 199.660156 120.039062 187.609375 130.140625 180.480469 136.71875 Z M 180.480469 136.71875 "></path><path style=" stroke:none;fill-rule:nonzero;fill:rgb(71.764708%,10.980392%,10.980392%);fill-opacity:1;" d="M 180.5 185 C 180.5 228.800781 144 263.601562 117.699219 289 C 113.300781 293.300781 98.398438 294 98.398438 294 C 102.101562 290.199219 106.300781 286.199219 110.800781 281.898438 C 135.800781 257.699219 170.5 224.601562 170.5 185 C 170.5 138.101562 151.601562 119.601562 136.699219 104.800781 C 130.101562 98.101562 124.5 91.699219 121.101562 83.898438 L 124.199219 82.601562 C 127.601562 84.101562 131.5 85.800781 134.5 87.101562 C 136.898438 90.601562 140.101562 94 143.800781 97.699219 C 159.101562 113 180.5 134 180.5 185 Z M 180.5 185 "></path><path style=" stroke:none;fill-rule:nonzero;fill:rgb(71.764708%,10.980392%,10.980392%);fill-opacity:1;" d="M 429.351562 197.941406 C 429.351562 197.941406 423.300781 198.800781 421.601562 199 C 334 208.699219 243.601562 233.898438 191.898438 254.601562 C 173.199219 262.101562 153.800781 271.199219 136.101562 281.398438 C 136 281.5 135.898438 281.5 135.699219 281.601562 C 125.300781 287.601562 100 300 79.5 310.898438 C 109.5 279 165.699219 254.398438 188.101562 245.398438 C 238.800781 225.101562 325.898438 200.601562 411.601562 190.101562 C 401.5 178.300781 376.800781 153.300781 328.199219 134.699219 C 299.800781 123.699219 256.601562 117.5 218.5 112 C 157.898438 103.300781 123.398438 97.5 120.101562 81 C 119.398438 77.699219 119.898438 74.398438 121.398438 71.199219 C 124.699219 76.601562 129.398438 80.398438 132.5 82.601562 C 134 83.601562 135.101562 84.199219 135.5 84.398438 L 135.601562 84.5 C 149.800781 92 188.101562 97.5 220 102.101562 C 258.601562 107.699219 302.300781 114 331.800781 125.300781 C 400.5 151.800781 424.199219 189.699219 425.199219 191.300781 C 426.101562 192.800781 429.351562 197.941406 429.351562 197.941406 Z M 429.351562 197.941406 "></path></g></svg>